<svg width="48" height="48" viewBox="0 0 48 48" fill="none" xmlns="http://www.w3.org/2000/svg">
<g id="chart-bubble">
<g id="Union">
<path d="M27 16.5C27 21.4706 22.9702 25.5 18 25.5C13.0298 25.5 9 21.4706 9 16.5C9 11.5294 13.0298 7.5 18 7.5C22.9702 7.5 27 11.5294 27 16.5ZM24 16.5C24 13.1863 21.3135 10.5 18 10.5C14.6865 10.5 12 13.1863 12 16.5C12 19.8137 14.6865 22.5 18 22.5C21.3135 22.5 24 19.8137 24 16.5Z" fill="#F3A600"/>
<path d="M42 30C42 34.1421 38.6418 37.5 34.5 37.5C30.3582 37.5 27 34.1421 27 30C27 25.8579 30.3582 22.5 34.5 22.5C38.6418 22.5 42 25.8579 42 30ZM39 30C39 27.5147 36.9851 25.5 34.5 25.5C32.0149 25.5 30 27.5147 30 30C30 32.4853 32.0149 34.5 34.5 34.5C36.9851 34.5 39 32.4853 39 30Z" fill="#F3A600"/>
<path d="M15 36C15 38.4853 12.9851 40.5 10.5 40.5C8.01489 40.5 6 38.4853 6 36C6 33.5147 8.01489 31.5 10.5 31.5C12.9851 31.5 15 33.5147 15 36Z" fill="#F3A600"/>
<path d="M39 13.5C40.6567 13.5 42 12.1569 42 10.5C42 8.84312 40.6567 7.5 39 7.5C37.3433 7.5 36 8.84312 36 10.5C36 12.1569 37.3433 13.5 39 13.5Z" fill="#F3A600"/>
</g>
</g>
</svg>
