<svg width="19" height="18" viewBox="0 0 19 18" fill="none" xmlns="http://www.w3.org/2000/svg">
<g id="search">
<path id="Union" d="M11.1991 11.496C10.2784 12.2416 9.10561 12.6882 7.82852 12.6882C4.8684 12.6882 2.46875 10.2886 2.46875 7.32849C2.46875 4.36839 4.8684 1.96875 7.82852 1.96875C10.7886 1.96875 13.1883 4.36839 13.1883 7.32849C13.1883 8.60559 12.7416 9.77838 11.996 10.6991L15.9688 14.6719L15.1719 15.4687L11.1991 11.496ZM12.0614 7.32849C12.0614 4.99076 10.1663 3.09564 7.82852 3.09564C5.49076 3.09564 3.59564 4.99076 3.59564 7.32849C3.59564 9.66622 5.49076 11.5613 7.82852 11.5613C10.1663 11.5613 12.0614 9.66622 12.0614 7.32849Z" fill="#0052D9"/>
</g>
</svg>
