<svg width="36" height="36" viewBox="0 0 36 36" fill="none" xmlns="http://www.w3.org/2000/svg">
<g id="add-circle">
<g id="Union">
<path d="M16.875 19.125H10.125V16.875H16.875V10.125H19.125V16.875H25.875V19.125H19.125V25.875H16.875V19.125Z" fill="#747474"/>
<path d="M18 33.75C26.6985 33.75 33.75 26.6985 33.75 18C33.75 9.30152 26.6985 2.25 18 2.25C9.30152 2.25 2.25 9.30152 2.25 18C2.25 26.6985 9.30152 33.75 18 33.75ZM18 31.5C10.5442 31.5 4.5 25.4558 4.5 18C4.5 10.5442 10.5442 4.5 18 4.5C25.4558 4.5 31.5 10.5442 31.5 18C31.5 25.4558 25.4558 31.5 18 31.5Z" fill="#747474"/>
</g>
</g>
</svg>
