<svg width="36" height="36" viewBox="0 0 36 36" fill="none" xmlns="http://www.w3.org/2000/svg">
<g id="Frame">
<path id="Vector" d="M10.5 9C10.5 4.85787 13.8579 1.5 18 1.5C22.1421 1.5 25.5 4.85787 25.5 9V16.5C25.5 20.6421 22.1421 24 18 24C13.8579 24 10.5 20.6421 10.5 16.5V9ZM18 4.5C15.5146 4.5 13.5 6.51472 13.5 9V16.5C13.5 18.9854 15.5146 21 18 21C20.4854 21 22.5 18.9854 22.5 16.5V9C22.5 6.51472 20.4854 4.5 18 4.5ZM9 15V16.5C9 21.4706 13.0294 25.5 18 25.5C22.9706 25.5 27 21.4706 27 16.5V15H30V16.5C30 22.6194 25.4194 27.669 19.5 28.4072V30H27V33H9V30H16.5V28.4072C10.5805 27.669 6 22.6194 6 16.5V15H9Z" fill="#747474"/>
</g>
</svg>
