<svg width="28" height="28" viewBox="0 0 28 28" fill="none" xmlns="http://www.w3.org/2000/svg">
<g id="star">
<path id="Union" d="M16.6983 11.1662L14.003 5.70506L11.3078 11.1662L5.2811 12.0419L9.64206 16.2928L8.61258 22.2952L14.003 19.4612L19.3935 22.2952L18.364 16.2928L22.725 12.0419L16.6983 11.1662ZM25.4329 10.667C25.8636 10.7296 26.0355 11.2588 25.7239 11.5625L20.2443 16.9038L21.5379 24.4457C21.6114 24.8746 21.1613 25.2017 20.7761 24.9992L14.003 21.4383L7.22992 24.9992C6.84477 25.2017 6.39462 24.8746 6.46817 24.4457L7.76172 16.9038L2.28216 11.5625C1.97057 11.2588 2.14251 10.7296 2.57313 10.667L10.1457 9.56667L13.5322 2.70476C13.7248 2.31456 14.2812 2.31456 14.4738 2.70476L17.8604 9.56667L25.4329 10.667Z" fill="#366EF4"/>
</g>
</svg>
