<svg width="45" height="457" viewBox="0 0 45 457" fill="none" xmlns="http://www.w3.org/2000/svg">
<path d="M0.999945 455C0.44766 455 -5.7072e-05 455.448 -5.90367e-05 456C-6.10014e-05 456.552 0.447653 457 0.999937 457L0.999945 455ZM43.5015 456L43.5015 457C43.7667 457 44.021 456.895 44.2086 456.707C44.3961 456.52 44.5015 456.265 44.5015 456L43.5015 456ZM43.5015 7.99983L44.5015 7.99983C44.5015 7.73461 44.3961 7.48026 44.2086 7.29272C44.021 7.10519 43.7667 6.99983 43.5015 6.99983L43.5015 7.99983ZM0.292834 7.29274C-0.0976904 7.68326 -0.0976902 8.31643 0.292834 8.70695L6.6568 15.0709C7.04732 15.4614 7.68049 15.4614 8.07101 15.0709C8.46154 14.6804 8.46154 14.0472 8.07101 13.6567L2.41415 7.99984L8.07101 2.34299C8.46153 1.95246 8.46153 1.3193 8.07101 0.928773C7.68048 0.538249 7.04732 0.538249 6.65679 0.928773L0.292834 7.29274ZM0.999937 457L43.5015 457L43.5015 455L0.999945 455L0.999937 457ZM44.5015 456L44.5015 7.99983L42.5015 7.99983L42.5015 456L44.5015 456ZM43.5015 6.99983L0.99994 6.99984L0.999941 8.99984L43.5015 8.99983L43.5015 6.99983Z" fill="#C1C1C1"/>
</svg>
