<svg width="22" height="22" viewBox="0 0 22 22" fill="none" xmlns="http://www.w3.org/2000/svg">
<g id="star">
<path id="Union" d="M13.1197 8.77273L11.002 4.48185L8.88432 8.77273L4.14905 9.46081L7.57552 12.8008L6.76664 17.5169L11.002 15.2903L15.2374 17.5169L14.4285 12.8008L17.8549 9.46081L13.1197 8.77273ZM19.9826 8.38054C20.321 8.4297 20.4561 8.84549 20.2113 9.08414L15.9059 13.2808L16.9222 19.2067C16.98 19.5436 16.6263 19.8006 16.3237 19.6415L11.002 16.8437L5.68027 19.6415C5.37765 19.8006 5.02396 19.5436 5.08175 19.2067L6.09811 13.2808L1.79275 9.08414C1.54792 8.84549 1.68302 8.4297 2.02136 8.38054L7.97123 7.51597L10.6321 2.12447C10.7834 1.81788 11.2206 1.81788 11.3719 2.12447L14.0328 7.51597L19.9826 8.38054Z" fill="#0052D9"/>
</g>
</svg>
