<svg width="40" height="40" viewBox="0 0 40 40" fill="none" xmlns="http://www.w3.org/2000/svg">
<g id="user">
<g id="Union">
<path d="M28.75 12.5C28.75 17.3325 24.8325 21.25 20 21.25C15.1675 21.25 11.25 17.3325 11.25 12.5C11.25 7.66751 15.1675 3.75 20 3.75C24.8325 3.75 28.75 7.66751 28.75 12.5ZM26.25 12.5C26.25 9.04822 23.4518 6.25 20 6.25C16.5482 6.25 13.75 9.04822 13.75 12.5C13.75 15.9518 16.5482 18.75 20 18.75C23.4518 18.75 26.25 15.9518 26.25 12.5Z" fill="#0052D9"/>
<path d="M34.9078 27.1319C35.7425 27.5306 36.25 28.3866 36.25 29.3116V35C36.25 35.6904 35.6904 36.25 35 36.25H5C4.30965 36.25 3.75 35.6904 3.75 35V29.3116C3.75 28.3866 4.25754 27.5306 5.09216 27.1319C9.62351 24.9677 14.6663 23.75 20 23.75C25.3337 23.75 30.3765 24.9677 34.9078 27.1319ZM20 26.25C15.0835 26.25 10.4359 27.3643 6.25 29.3496V33.75H33.75V29.3496C29.5641 27.3643 24.9165 26.25 20 26.25Z" fill="#0052D9"/>
</g>
</g>
</svg>
