<svg width="20" height="20" viewBox="0 0 20 20" fill="none" xmlns="http://www.w3.org/2000/svg">
<g id="app">
<g id="Union">
<path d="M14.0625 2.1875C11.9914 2.1875 10.3125 3.86643 10.3125 5.9375C10.3125 8.00857 11.9914 9.6875 14.0625 9.6875C16.1336 9.6875 17.8125 8.00857 17.8125 5.9375C17.8125 3.86643 16.1336 2.1875 14.0625 2.1875ZM11.5625 5.9375C11.5625 4.55679 12.6818 3.4375 14.0625 3.4375C15.4432 3.4375 16.5625 4.55679 16.5625 5.9375C16.5625 7.31821 15.4432 8.4375 14.0625 8.4375C12.6818 8.4375 11.5625 7.31821 11.5625 5.9375Z" fill="black" fill-opacity="0.9"/>
<path d="M2.5 3.75C2.5 3.05964 3.05964 2.5 3.75 2.5H8.125C8.81536 2.5 9.375 3.05964 9.375 3.75V8.125C9.375 8.81536 8.81536 9.375 8.125 9.375H3.75C3.05964 9.375 2.5 8.81536 2.5 8.125V3.75ZM3.75 3.75V8.125H8.125V3.75H3.75Z" fill="black" fill-opacity="0.9"/>
<path d="M2.5 11.875C2.5 11.1846 3.05964 10.625 3.75 10.625H8.125C8.81536 10.625 9.375 11.1846 9.375 11.875V16.25C9.375 16.9404 8.81536 17.5 8.125 17.5H3.75C3.05964 17.5 2.5 16.9404 2.5 16.25V11.875ZM3.75 11.875V16.25H8.125V11.875H3.75Z" fill="black" fill-opacity="0.9"/>
<path d="M10.625 11.875C10.625 11.1846 11.1846 10.625 11.875 10.625H16.25C16.9404 10.625 17.5 11.1846 17.5 11.875V16.25C17.5 16.9404 16.9404 17.5 16.25 17.5H11.875C11.1846 17.5 10.625 16.9404 10.625 16.25V11.875ZM11.875 16.25H16.25V11.875H11.875V16.25Z" fill="black" fill-opacity="0.9"/>
</g>
</g>
</svg>
