<svg width="33" height="32" viewBox="0 0 33 32" fill="none" xmlns="http://www.w3.org/2000/svg">
<g id="folder-open">
<g id="Union">
<path d="M5.66406 5.48828H13.5212L17.6641 8.78972H27.6641V6.78972H18.3635L14.2206 3.48828L5.66406 3.48828V5.48828Z" fill="#0052D9"/>
<path d="M5.66406 8.78968C4.55949 8.78968 3.66406 9.68511 3.66406 10.7897V26.0004C3.66406 27.105 4.55949 28.0004 5.66406 28.0004L27.6641 28.0004C28.7686 28.0004 29.6641 27.105 29.6641 26.0004V14.0911C29.6641 12.9865 28.7686 12.0911 27.6641 12.0911H17.0138L12.8709 8.78967L5.66406 8.78968ZM5.66406 10.7897L12.1715 10.7897L16.3143 14.0911H27.6641V26.0004L5.66406 26.0004V10.7897Z" fill="#0052D9"/>
</g>
</g>
</svg>
