<svg width="20" height="20" viewBox="0 0 20 20" fill="none" xmlns="http://www.w3.org/2000/svg">
<g id="prefixIcon">
<g id="Union">
<path d="M10.5968 9.37499L7.78958 6.56776L8.67346 5.68388L12.636 9.64644C12.8313 9.8417 12.8313 10.1583 12.636 10.3535L8.67346 14.3161L7.78958 13.4322L10.5968 10.625L1.25 10.625L1.25 9.37497L10.5968 9.37499Z" fill="black" fill-opacity="0.6"/>
<path d="M5.00007 6.25V3.75H15.0001V16.25H5.00007V13.75H3.75007V16.875C3.75007 17.2202 4.02989 17.5 4.37507 17.5H15.6251C15.9702 17.5 16.2501 17.2202 16.2501 16.875V3.125C16.2501 2.77982 15.9702 2.5 15.6251 2.5H4.37507C4.02989 2.5 3.75007 2.77982 3.75007 3.125V6.25H5.00007Z" fill="black" fill-opacity="0.6"/>
</g>
</g>
</svg>
