<svg width="20" height="20" viewBox="0 0 20 20" fill="none" xmlns="http://www.w3.org/2000/svg">
<g id="prefixIcon">
<g id="Union">
<path d="M8.74969 6.5625H4.99969V5.3125H8.74969V6.5625Z" fill="black" fill-opacity="0.6"/>
<path d="M1.875 3.12517C1.87491 2.77993 2.15476 2.5 2.5 2.5H17.5C17.8451 2.5 18.1249 2.77972 18.125 3.12483L18.1262 8.74985C18.1263 9.0951 17.8464 9.37502 17.5012 9.37502H2.50119C2.15608 9.37502 1.87628 9.0953 1.87619 8.75019L1.875 3.12517ZM3.12602 8.12502H16.876L16.8752 3.75H3.12517L3.12602 8.12502Z" fill="black" fill-opacity="0.6"/>
<path d="M4.99983 14.6875H8.74983V13.4375H4.99983V14.6875Z" fill="black" fill-opacity="0.6"/>
<path d="M1.87636 11.25C1.87636 10.9048 2.15618 10.625 2.50136 10.625H17.5014C17.8465 10.625 18.1264 10.9048 18.1264 11.25V16.875C18.1264 17.2202 17.8465 17.5 17.5014 17.5H2.50136C2.15618 17.5 1.87636 17.2202 1.87636 16.875V11.25ZM3.12636 16.25H16.8764V11.875H3.12636V16.25Z" fill="black" fill-opacity="0.6"/>
</g>
</g>
</svg>
