<svg width="18" height="18" viewBox="0 0 18 18" fill="none" xmlns="http://www.w3.org/2000/svg">
<g id="search">
<path id="Union" d="M10.6991 11.496C9.77837 12.2416 8.60561 12.6882 7.32852 12.6882C4.3684 12.6882 1.96875 10.2886 1.96875 7.32849C1.96875 4.36839 4.3684 1.96875 7.32852 1.96875C10.2886 1.96875 12.6883 4.36839 12.6883 7.32849C12.6883 8.60559 12.2416 9.77838 11.496 10.6991L15.4688 14.6719L14.6719 15.4687L10.6991 11.496ZM11.5614 7.32849C11.5614 4.99076 9.66627 3.09564 7.32852 3.09564C4.99076 3.09564 3.09564 4.99076 3.09564 7.32849C3.09564 9.66622 4.99076 11.5613 7.32852 11.5613C9.66627 11.5613 11.5614 9.66622 11.5614 7.32849Z" fill="#0052D9"/>
</g>
</svg>
